<?xml version="1.0" encoding="utf-8" ?>
<!-- Generator: Adobe Illustrator 27.9.0, SVG Export Plug-In . SVG Version: 6.00 Build 0)  -->
<svg
  version="1.1"
  id="Layer_1"
  xmlns="http://www.w3.org/2000/svg"
  xmlns:xlink="http://www.w3.org/1999/xlink"
  x="0px"
  y="0px"
  viewBox="0 0 1713.94 341.04"
  style="enable-background:new 0 0 1713.94 341.04;"
  xml:space="preserve"
>
<style type="text/css">
.st0 {
  fill: white;
}
  </style>
<g>
    <g>
      <path
        class="st0"
        d="M1070.12,47.93c1.79-1.69,2.69-3.63,2.69-5.82l0.01-33.05c0-2.19-0.89-4.18-2.68-5.97
			c-1.79-1.79-3.78-2.69-5.97-2.69L918.1,0.38c-2.39,0-4.43,0.89-6.12,2.68c-1.69,1.79-2.54,3.78-2.54,5.97l-0.01,33.05
			c0,2.19,0.84,4.13,2.53,5.82c1.69,1.69,3.73,2.54,6.12,2.54l36.6,0.01c2.39,0,4.4,0.47,6.09,2.26c1.69,1.79,1.63,4.21,1.63,6.4
			l-0.47,131.31c0,2.39,0.89,4.43,2.68,6.12c1.79,1.69,3.78,2.54,5.97,2.54l49.2,0.01c2.19,0,4.13-0.84,5.82-2.54
			c1.69-1.69,2.54-3.73,2.54-6.12l0.47-131.31c0-2.19,0.9-4.18,2.69-5.97c1.79-1.79,3.78-2.68,5.97-2.68l26.88,0.01
			C1066.34,50.47,1068.33,49.62,1070.12,47.93z"
      />
      <path
        class="st0"
        d="M1235.76,54.85l-9.9,0c-2.19,0-4.13-0.84-5.82-2.54c-1.69-1.69-2.54-3.63-2.54-5.82l0-6.41l0-6.73l0-12.39
			l0-10.33c0-5.63-4.57-10.2-10.2-10.2l-102.43-0.02c-2.19,0-4.18,0.89-5.97,2.68c-1.79,1.79-2.69,3.78-2.69,5.97l-0.01,50.6
			c0,5.64-4.56,10.21-10.2,10.22l-25.38,0.39c-2.39,0-4.43,0.89-6.12,2.68c-1.69,1.79-2.54,3.78-2.54,5.97l-0.47,111.62
			c0,2.6,1,4.79,3.01,6.56c1.56,1.38,3.61,1.98,5.69,1.98l48.9,0c2.59,0,4.77-1.23,6.55-3.23c1.38-1.56,2.1-3.59,2.1-5.67
			l0.46-67.17c0-2.39,0.9-4.42,2.71-6.12c1.8-1.69,3.81-2.53,6.02-2.53l42.69,0.01c2.2,0,4.16,0.85,5.87,2.54
			c1.71,1.69,2.56,3.73,2.56,6.12l-0.26,67.42c0,2.39,0.89,4.43,2.67,6.12c1.78,1.69,3.76,2.54,5.94,2.54l49.1,0.01
			c2.18,0,4.16-0.84,5.94-2.54c1.78-1.69,2.68-3.73,2.68-6.12l0.27-126.96c0-2.19-0.89-4.18-2.68-5.97
			C1239.94,55.75,1237.95,54.85,1235.76,54.85z M1180.23,61.98c0,2.19-0.85,4.18-2.56,5.97c-1.71,1.79-3.66,2.68-5.87,2.68
			l-28.07-0.01c-2.21,0-4.22-0.9-6.02-2.69c-1.81-1.79-2.71-3.78-2.71-5.97l0-19.98c0-2.19,0.9-4.18,2.71-5.97
			c1.8-1.79,3.81-2.68,6.02-2.68l28.07,0.01c2.2,0,4.16,0.9,5.87,2.69c1.71,1.79,2.56,3.78,2.56,5.97L1180.23,61.98z"
      />
      <path
        class="st0"
        d="M1373.1,152.16l-33.38-0.01c-2.19,0-4.18-0.84-5.97-2.54c-1.79-1.69-2.68-3.73-2.68-6.12l0.03-134.38
			c0-2.19-0.85-4.18-2.53-5.97c-1.69-1.79-3.73-2.69-6.12-2.69l-48.93-0.01c-2.39,0-4.43,0.89-6.12,2.68
			c-1.69,1.79-2.54,3.78-2.54,5.97l-0.48,181.35c0,2.39,0.84,4.43,2.54,6.12c1.69,1.69,3.73,2.54,6.12,2.54l100.05,0.02
			c2.19,0,4.18-0.84,5.97-2.54c1.79-1.69,2.69-3.73,2.69-6.12l0.01-29.66c0-2.39-0.89-4.42-2.68-6.12
			C1377.28,153.01,1375.29,152.16,1373.1,152.16z"
      />
      <path
        class="st0"
        d="M1495.66,97.38c0.01-5.01,4.07-9.07,9.09-9.07l14.22,0c0.15,0.01,0.31,0.02,0.46,0.02l19.47,0
			c4.86,0,8.81-3.94,8.81-8.81l-0.02-70.87c0-2.39-0.89-4.43-2.67-6.12c-1.78-1.69-3.76-2.54-5.94-2.54L1503.42,0
			c-2.18,0-4.16,0.84-5.94,2.53c-1.78,1.69-2.67,3.73-2.67,6.12l-0.01,42.6c0,2.02-0.67,4.01-2,5.52c-1.83,2.08-3.98,3.13-6.43,3.13
			l-13.15,0c-2.21,0-4.22-0.9-6.02-2.69c-1.81-1.79-2.71-3.78-2.71-5.97l0.01-42.1c0-2.19-0.85-4.18-2.53-5.97
			c-1.69-1.79-3.73-2.69-6.12-2.69l-49.04-0.01c-2.39,0-4.43,0.89-6.12,2.68c-1.69,1.79-2.54,3.78-2.54,5.97l-0.48,181.29
			c0,1.97,0.62,3.93,1.87,5.45c1.81,2.19,4.07,3.27,6.78,3.27l35.67,0.01c1.96,0,3.9-0.62,5.41-1.87c2.17-1.81,3.27-4.07,3.27-6.78
			l0.45-58.29c0-2.73,2.21-4.94,4.95-4.94l8.72,0c2.73,0,4.94,2.21,4.94,4.95l0,22.37c0,2.29,0.79,4.55,2.36,6.22
			c0.01,0.01,0.03,0.03,0.04,0.04c1.7,1.78,3.74,2.68,6.14,2.68l29.86,0.01c2.2,0,4.19,0.84,5.99,2.52c1.8,1.68,2.69,3.61,2.69,5.79
			l0,18.7c0,2.18,0.85,4.16,2.54,5.94c1.69,1.78,3.73,2.68,6.11,2.68l39.71,0.01c2.39,0,4.43-0.89,6.12-2.67
			c1.69-1.78,2.54-3.76,2.54-5.94l0.01-70.65c0-2.18-0.84-4.16-2.54-5.94c-1.69-1.78-3.73-2.67-6.11-2.67l-60.51,0.36
			c-5-0.03-9.03-4.1-9.02-9.1L1495.66,97.38z"
      />
      <path
        class="st0"
        d="M1704.85,0.54l-32.24-0.01l-7.81,0l-2.18,0c-4.86,0-8.81,3.94-8.81,8.81l-0.01,64.95
			c0,4.79-3.54,8.68-7.9,8.68l-9.35,0c-4.36,0-7.9-3.89-7.9-8.68l0.01-64.95c0-4.86-3.94-8.81-8.81-8.81l-4.27,0l-38.77-0.01
			c-2.39,0-4.43,0.89-6.12,2.67c-1.69,1.78-2.54,3.76-2.54,5.94l-0.01,26.79l0,21.71l0,24.82c0,4.86,3.94,8.81,8.81,8.81l22.26,0
			c0.09,0,0.17,0.01,0.25,0.01l-0.73,0c2.39,0,4.42,0.85,6.12,2.54c1.69,1.69,2.54,3.73,2.54,6.12l-0.02,90.6
			c0,2.39,0.89,4.43,2.68,6.12c1.79,1.69,3.78,2.54,5.97,2.54l50.25,0.01c2.42,0,4.53-1.03,6.34-3.1c1.35-1.54,2.01-3.56,2.01-5.6
			l0.02-90.56c0-2.39,0.9-4.42,2.7-6.12c1.8-1.69,3.79-2.54,5.99-2.53l21.9,0c2.2,0,4.19-0.9,5.99-2.71c1.8-1.8,2.7-3.81,2.7-6.02
			l0-7.87l0.01-65.06C1713.95,4.62,1709.87,0.54,1704.85,0.54z"
      />
    </g>
    <g>
      <g>
        <path
          class="st0"
          d="M438.35,326.47c0,10.64-7.38,14.58-18.55,14.58h-0.21c-11.17,0-18.55-3.84-18.55-14.58V285.1
				c0-10.24,7.38-14.58,18.55-14.58h0.21c11.17,0,18.55,4.33,18.55,14.58v12.61h-12.23v-10.84c0-4.83-2.53-6.3-6.43-6.3
				c-3.9,0-6.43,1.48-6.43,6.3v37.82c0,4.83,2.53,6.3,6.43,6.3c3.9,0,6.43-1.48,6.43-6.3v-12.51h12.23V326.47z"
        />
        <path
          class="st0"
          d="M460.27,271.31v28.76h14.02v-28.76h12.23v68.95h-12.23v-29.94h-14.02v29.94h-12.22v-68.95H460.27z"
        />
        <path
          class="st0"
          d="M520.55,324.89h-13.49l-2.63,15.37h-11.8l13.7-68.95h15.38l13.91,68.95h-12.43L520.55,324.89z
				 M518.97,315.43l-5.17-30.63l-5.16,30.63H518.97z"
        />
        <path
          class="st0"
          d="M541.73,340.26v-68.95h12.22l15.49,42.65v-42.65h11.17v68.95h-11.59l-16.12-44.82v44.82H541.73z"
        />
        <path
          class="st0"
          d="M591.16,340.26v-68.95h12.22l15.49,42.65v-42.65h11.17v68.95h-11.59l-16.13-44.82v44.82H591.16z"
        />
        <path
          class="st0"
          d="M640.58,340.26v-68.95h32.35v10.05H652.8v18.91h16.86v10.05H652.8v19.9h20.45v10.05H640.58z"
        />
        <path class="st0" d="M712.98,340.26h-31.09v-68.95h12.22v58.7h18.86V340.26z" />
        <path class="st0" d="M765.36,281.35h-12.33v58.9h-12.22v-58.9h-12.33v-10.05h36.88V281.35z" />
        <path
          class="st0"
          d="M790.55,324.89h-13.49l-2.63,15.37h-11.8l13.7-68.95h15.38l13.91,68.95h-12.43L790.55,324.89z
				 M788.97,315.43l-5.17-30.63l-5.16,30.63H788.97z"
        />
        <path class="st0" d="M842.82,340.26h-31.09v-68.95h12.22v58.7h18.86V340.26z" />
        <path
          class="st0"
          d="M877.18,340.26l-10.12-29.94l-5.48,10.05v19.9h-12.22v-68.95h12.22v31.03l13.91-31.03h12.85l-14.12,25.91
				l15.39,43.04H877.18z"
        />
        <path
          class="st0"
          d="M925.33,271.31v28.76h14.02v-28.76h12.23v68.95h-12.23v-29.94h-14.02v29.94h-12.22v-68.95H925.33z"
        />
        <path
          class="st0"
          d="M985.61,324.89h-13.49l-2.63,15.37h-11.8l13.7-68.95h15.38l13.91,68.95h-12.43L985.61,324.89z
				 M984.03,315.43l-5.17-30.63l-5.16,30.63H984.03z"
        />
        <path
          class="st0"
          d="M1043.37,326.47c0,10.64-7.38,14.58-18.55,14.58h-0.21c-11.17,0-18.55-3.84-18.55-14.58V285.1
				c0-10.24,7.38-14.58,18.55-14.58h0.21c11.17,0,18.55,4.33,18.55,14.58v12.61h-12.22v-10.84c0-4.83-2.53-6.3-6.43-6.3
				c-3.9,0-6.43,1.48-6.43,6.3v37.82c0,4.83,2.53,6.3,6.43,6.3c3.9,0,6.43-1.48,6.43-6.3v-12.51h12.22V326.47z"
        />
        <path
          class="st0"
          d="M1080.88,340.26l-10.12-29.94l-5.48,10.05v19.9h-12.22v-68.95h12.22v31.03l13.91-31.03h12.86l-14.12,25.91
				l15.39,43.04H1080.88z"
        />
        <path
          class="st0"
          d="M1121.88,324.89h-13.49l-2.63,15.37h-11.8l13.7-68.95h15.39l13.91,68.95h-12.43L1121.88,324.89z
				 M1120.3,315.43l-5.17-30.63l-5.16,30.63H1120.3z"
        />
        <path class="st0" d="M1171.09,281.35h-12.33v58.9h-12.22v-58.9h-12.33v-10.05h36.88V281.35z" />
        <path
          class="st0"
          d="M1189.64,271.31v28.76h14.02v-28.76h12.23v68.95h-12.23v-29.94h-14.02v29.94h-12.22v-68.95H1189.64z"
        />
        <path
          class="st0"
          d="M1244.55,270.52h0.84c11.17,0,18.55,4.14,18.55,14.58v41.37c0,10.44-7.38,14.58-18.55,14.58h-0.84
				c-11.17,0-18.55-4.14-18.55-14.58V285.1C1226,274.56,1233.37,270.52,1244.55,270.52z M1244.97,331c4,0,6.74-1.38,6.74-6.3v-37.82
				c0-4.92-2.74-6.3-6.74-6.3c-4,0-6.74,1.38-6.74,6.3v37.82C1238.22,329.62,1240.96,331,1244.97,331z"
        />
        <path
          class="st0"
          d="M1274.05,340.26v-68.95h12.22l15.49,42.65v-42.65h11.17v68.95h-11.59l-16.13-44.82v44.82H1274.05z"
        />
      </g>
    </g>
    <g>
      <path
        class="st0"
        d="M157.3,0.23l-49-0.01c-2.18,0-4.16,0.89-5.94,2.68c-1.78,1.79-2.67,3.78-2.67,5.97l-0.01,45.65
			c0,2.19-0.85,4.18-2.56,5.97s-3.66,2.68-5.87,2.68l-16.25,0c-2.21,0-4.22-0.9-6.02-2.69c-1.81-1.79-2.71-3.78-2.71-5.97
			l0.01-45.65c0-2.19-0.85-4.18-2.54-5.97c-1.69-1.79-3.73-2.69-6.11-2.69L8.69,0.21c-2.39,0-4.43,0.89-6.12,2.68
			C0.88,4.68,0.04,6.67,0.04,8.86L0,190.55c0,2.39,0.84,4.43,2.54,6.12c1.69,1.69,3.73,2.54,6.12,2.54l48.93,0.01
			c2.68,0,4.91-1.06,6.72-3.19c1.3-1.54,1.93-3.54,1.93-5.56l0.02-81.94c0-2.39,0.9-4.42,2.71-6.12c1.8-1.69,3.81-2.53,6.02-2.53
			l16.25,0c2.21,0,4.16,0.85,5.87,2.54c1.71,1.69,2.56,3.73,2.56,6.12l-0.02,82.04c0,2.39,0.89,4.43,2.67,6.12
			c1.78,1.69,3.76,2.54,5.94,2.54l49,0.01c2.18,0,4.16-0.84,5.94-2.53c1.78-1.69,2.68-3.73,2.68-6.11l0.04-181.69
			c0-2.19-0.89-4.18-2.67-5.97C161.46,1.13,159.48,0.24,157.3,0.23z"
      />
      <path
        class="st0"
        d="M737.48,151.25l-19.49,0c-3.24,0-5.87-2.63-5.87-5.87l0-25.23c0-2.18-0.84-4.16-2.54-5.94
			c-1.69-1.78-3.73-2.67-6.11-2.67l-43.59-0.01c-4.42,0-8-3.58-8-8l0-4.01c0-4.43,3.6-8.01,8.02-8l23.92,0.05
			c4.86,0,8.81-3.94,8.81-8.81l0.01-33.69c0-0.16-0.02-0.31-0.02-0.47l0.01-39.6c0-2.39-0.89-4.43-2.68-6.12
			c-1.78-1.69-3.76-2.54-5.94-2.54l-38.65-0.01c-2.18,0-4.16,0.84-5.94,2.53c-1.78,1.69-2.67,3.73-2.67,6.12l-0.01,50.13
			c0,2.02-0.67,4.01-2,5.52c-1.84,2.08-3.98,3.13-6.43,3.13l-16.25,0c-2.21,0-4.22-0.9-6.02-2.69c-1.81-1.79-2.71-3.78-2.71-5.97
			l0.01-50.13c0-2.19-0.85-4.18-2.53-5.97c-1.69-1.79-3.73-2.69-6.12-2.69l-36.52-0.01c-2.39,0-4.43,0.89-6.12,2.68
			c-1.69,1.79-2.54,3.78-2.54,5.97l-0.04,181.29c0,1.97,0.62,3.93,1.87,5.45c1.81,2.19,4.07,3.27,6.78,3.28l41.44,0.01
			c1.96,0,3.9-0.62,5.41-1.87c2.17-1.81,3.27-4.07,3.27-6.78l0.01-52.12c0-4.08,3.31-7.39,7.39-7.38c4.08,0,7.38,3.31,7.38,7.39
			l0,21.01c0.31,1.6,1.1,3.08,2.4,4.45c1.7,1.78,3.74,2.68,6.14,2.68l19.19,0c2.2,0,4.19,0.84,5.99,2.52
			c1.8,1.68,2.69,3.61,2.69,5.79l0,15.71c0,2.18,0.85,4.16,2.54,5.94c1.69,1.78,3.73,2.68,6.11,2.68l61.2,0.01c0,0,0,0,0.01,0
			l8.17,0c3.24,0,5.87-2.63,5.87-5.87l0.01-36.02C743.35,153.88,740.72,151.25,737.48,151.25z"
      />
      <path
        class="st0"
        d="M356.74,37.27l-18.79,0c-2.19,0-4.13-0.84-5.82-2.54c-1.69-1.69-2.53-3.63-2.53-5.82l0-19.99
			c0-2.19-0.89-4.18-2.68-5.97c-1.79-1.79-3.78-2.69-5.97-2.69l-89.96-0.02c-2.19,0-4.18,0.89-5.97,2.68
			c-1.79,1.79-2.69,3.78-2.69,5.97l0,19.99c0,2.43-1.04,4.54-3.11,6.35c-1.53,1.34-6.35,2-8.38,2l-15.83,0
			c-2.39,0-4.43,0.89-6.12,2.68c-1.69,1.79-2.54,3.78-2.54,5.97l-0.03,144.37c0,2.39,0.84,4.43,2.53,6.12
			c1.69,1.69,3.73,2.54,6.12,2.54l48.99,0.01c2.68,0,4.91-1.06,6.72-3.19c1.3-1.54,1.93-3.54,1.93-5.56l0.01-66.82
			c0-2.39,0.9-4.42,2.71-6.11c1.8-1.69,3.81-2.54,6.02-2.53l29.2,0.01c2.2,0,4.16,0.85,5.87,2.54c1.71,1.69,2.56,3.73,2.56,6.12
			l-0.01,66.92c0,2.39,0.89,4.43,2.67,6.12c1.78,1.69,3.76,2.54,5.94,2.54l50.31,0.01c4.12,0,7.46-3.34,7.46-7.46l0.03-145.56
			c0-2.19-0.89-4.18-2.68-5.97C360.92,38.17,358.93,37.27,356.74,37.27z M299.09,70.74c0,2.19-0.85,4.18-2.56,5.97
			c-1.71,1.79-3.66,2.68-5.87,2.68l-29.29-0.01c-2.21,0-4.22-0.89-6.02-2.69c-1.81-1.79-2.71-3.78-2.71-5.97l0-19.6
			c0-2.19,0.9-4.18,2.71-5.97c1.8-1.79,3.81-2.68,6.02-2.68l29.29,0.01c2.2,0,4.16,0.9,5.87,2.69c1.71,1.79,2.56,3.78,2.56,5.97
			L299.09,70.74z"
      />
      <path
        class="st0"
        d="M520.39,112.88l-37.56-0.01c-2.19,0-4.13,0.89-5.82,2.68c-1.69,1.79-2.54,3.77-2.54,5.97l0,20.48
			c0,2.19-0.9,4.18-2.69,5.97c-1.56,1.56-3.28,2.44-5.15,2.64l-15.33,0c-2.19,0-4.18-0.84-5.97-2.54c-1.79-1.69-2.68-3.73-2.68-6.12
			l0.02-97.74c0-2.39,0.9-4.43,2.69-6.11c1.79-1.69,3.78-2.54,5.97-2.54l13.91,0c5.11,0,9.26,4.15,9.26,9.26l0,3.87
			c0,2.19,0.84,4.18,2.53,5.97c1.69,1.79,3.63,2.69,5.82,2.69l35.7,0.01c2.19,0,4.18-0.89,5.97-2.68c1.79-1.79,2.69-3.77,2.69-5.97
			l0.01-25.51v-3.34l0-10.9c0-2.39-0.89-4.43-2.68-6.12c-1.79-1.69-3.78-2.54-5.97-2.54L478.39,0.3L394.5,0.28
			c-2.39,0-4.43,0.84-6.12,2.54c-1.69,1.69-2.54,3.73-2.54,6.11l-0.04,181.36c0,2.39,0.84,4.43,2.53,6.12
			c1.69,1.69,3.73,2.54,6.12,2.54l85.75,0.02l40.16,0.01c2.19,0,4.18-0.84,5.97-2.53c1.79-1.69,2.69-3.73,2.69-6.11l0-18.66l0-12.38
			l0.01-37.74c0-2.19-0.89-4.18-2.68-5.97C524.57,113.78,522.58,112.89,520.39,112.88z"
      />
      <path
        class="st0"
        d="M874.78,57.96l0-21.71l-0.01-27.29c0-2.18-0.84-4.16-2.54-5.94c-1.69-1.78-3.73-2.67-6.12-2.67l-46.72,0.01
			h-2.21c-4.86,0-8.81,3.95-8.81,8.81l0.01,65.45c0,4.79-3.53,8.68-7.9,8.68l-6.55,0h-7.06c-4.35-0.02-7.86-3.9-7.86-8.68
			l0.01-65.45c0-4.86-3.94-8.81-8.81-8.81l-2.21,0L721.3,0.35c-2.39,0-4.43,0.89-6.12,2.67c-1.69,1.78-2.54,3.76-2.54,5.94
			l-0.01,27.29l0,21.71l0,24.82c0,4.87,3.94,8.81,8.81,8.81l28.85,0.01c0.09,0,0.17,0.01,0.25,0.01h-0.73
			c2.39,0,4.42,0.85,6.12,2.54c1.69,1.69,2.54,3.73,2.53,6.12l-0.02,90.43c0,2.39,0.89,4.43,2.68,6.12
			c1.79,1.69,3.78,2.21,5.97,2.21h23.71v0.01l29.53-0.01c2.19,0,4.18-0.51,5.97-2.21c1.79-1.69,2.68-3.73,2.68-6.12l-0.02-90.43
			c0-2.39,0.85-4.42,2.53-6.12c1.69-1.69,3.73-2.54,6.12-2.54h-0.73c0.09,0,0.17-0.01,0.25-0.01l28.85-0.01
			c4.86,0,8.81-3.95,8.81-8.81L874.78,57.96z"
      />
    </g>
  </g>
<g>
    <path
      class="st0"
      d="M903.35,146.35c-2.26,0-3.21,1.64-3.21,5.64c0,4,0.94,5.64,3.21,5.64c2.26,0,3.21-1.64,3.21-5.64
		C906.55,147.98,905.61,146.35,903.35,146.35z"
    />
    <path
      class="st0"
      d="M886.14,146.35c-2.26,0-3.21,1.64-3.21,5.64c0,4,0.94,5.64,3.21,5.64c2.26,0,3.21-1.64,3.21-5.64
		C889.35,147.98,888.4,146.35,886.14,146.35z"
    />
    <path
      class="st0"
      d="M895.21,103.63L895.21,103.63c-26.96,0-48.82,21.86-48.82,48.82v0c0,26.96,21.86,48.82,48.82,48.82h0
		c26.96,0,48.82-21.86,48.82-48.82v0C944.03,125.49,922.17,103.63,895.21,103.63z M918.29,169.07l1.82,5.45
		c0.58,1.74-1.08,3.4-2.82,2.82l-5.45-1.82c-1.69-0.56-3.52-0.42-5.11,0.38c-4.53,2.28-9.79,3.33-15.36,2.63
		c-12.01-1.49-21.72-11.18-23.18-23.19c-2.12-17.42,12.51-32.06,29.93-29.93c12.02,1.47,21.7,11.17,23.19,23.19
		c0.69,5.56-0.35,10.82-2.64,15.35C917.87,165.54,917.72,167.38,918.29,169.07z"
    />
  </g>
</svg>
