<svg width="158" height="35" viewBox="0 0 158 35" fill="none" xmlns="http://www.w3.org/2000/svg">
  <g clip-path="url(#clip0_841_41685)">
    <path
      d="M153.14 24.8696L149.91 19.9896L147.04 24.8696H142.78L147.92 16.9796L142.73 9.13965H147.21L150.42 13.9996L153.31 9.13965H157.54L152.38 16.9796L157.6 24.8696H153.14Z"
      fill="#FFFFFF"
    />
    <path
      d="M22.66 0H11.82C8.6886 -4.48262e-06 5.68517 1.24257 3.46906 3.45492C1.25295 5.66728 0.00529847 8.66861 0 11.8V22.65C0 25.7849 1.24532 28.7913 3.462 31.008C5.67868 33.2247 8.68514 34.47 11.82 34.47H22.66C25.7949 34.47 28.8013 33.2247 31.018 31.008C33.2347 28.7913 34.48 25.7849 34.48 22.65V11.8C34.4747 8.66861 33.227 5.66728 31.0109 3.45492C28.7948 1.24257 25.7914 -4.48262e-06 22.66 0ZM27.16 12.55C24.535 13.4624 22.1445 14.9445 20.16 16.89C19.8407 17.2398 19.5684 17.6297 19.35 18.05C19.1316 18.4505 19.0052 18.8946 18.98 19.35C18.9732 19.6881 19.0348 20.024 19.161 20.3377C19.2873 20.6513 19.4756 20.9363 19.7147 21.1753C19.9537 21.4144 20.2387 21.6027 20.5523 21.729C20.866 21.8552 21.2019 21.9168 21.54 21.91C22.3604 21.8749 23.1469 21.573 23.78 21.05C23.9983 20.8757 24.2734 20.7884 24.5523 20.8051C24.8311 20.8217 25.0939 20.941 25.29 21.14L26.8 22.33C26.9684 22.4521 27.0946 22.6237 27.1609 22.8208C27.2272 23.018 27.2304 23.2309 27.17 23.43C27.1445 23.494 27.1109 23.5545 27.07 23.61C26.4055 24.4704 25.5523 25.1666 24.5762 25.6452C23.6001 26.1237 22.5271 26.3717 21.44 26.37C19.9321 26.3581 18.4649 25.8795 17.24 25C16.5735 24.5147 15.998 23.9155 15.54 23.23L15.27 22.83L14.89 23.13C13.3393 24.3304 11.6254 25.3035 9.8 26.02C9.5054 26.1442 9.17683 26.1622 8.87042 26.071C8.56401 25.9798 8.29877 25.785 8.12 25.52L6.84 23.52C6.75193 23.3826 6.69551 23.2274 6.67485 23.0656C6.65419 22.9037 6.66979 22.7393 6.72052 22.5842C6.77126 22.4291 6.85585 22.2873 6.96819 22.1689C7.08052 22.0506 7.21777 21.9587 7.37 21.9C9.99387 20.9852 12.3839 19.5034 14.37 17.56C14.6893 17.2102 14.9616 16.8203 15.18 16.4C15.3936 15.9976 15.5197 15.5546 15.55 15.1C15.5567 14.7654 15.4963 14.4328 15.3726 14.1218C15.2488 13.8108 15.0641 13.5277 14.8293 13.2892C14.5945 13.0506 14.3143 12.8615 14.0053 12.7328C13.6963 12.6042 13.3647 12.5386 13.03 12.54H12.96C12.1393 12.5736 11.3523 12.8757 10.72 13.4C10.5017 13.5743 10.2266 13.6616 9.94772 13.6449C9.66887 13.6283 9.40605 13.509 9.21 13.31L7.66 12.14C7.49158 12.0179 7.36542 11.8463 7.2991 11.6492C7.23278 11.452 7.2296 11.2391 7.29 11.04C7.30983 10.9754 7.34024 10.9146 7.38 10.86C8.04502 9.99774 8.89971 9.30024 9.8778 8.8216C10.8559 8.34296 11.9311 8.09604 13.02 8.1C14.5347 8.10778 16.0095 8.58657 17.24 9.47C17.9244 9.95072 18.5171 10.5502 18.99 11.24L19.26 11.64L19.64 11.34C21.1893 10.1376 22.9035 9.16428 24.73 8.45C25.0246 8.32585 25.3532 8.30783 25.6596 8.39902C25.966 8.49021 26.2312 8.68496 26.41 8.95L27.69 10.95C27.7744 11.0867 27.8278 11.2402 27.8465 11.3998C27.8651 11.5594 27.8486 11.7211 27.7981 11.8736C27.7476 12.0261 27.6643 12.1657 27.554 12.2825C27.4438 12.3994 27.3093 12.4907 27.16 12.55Z"
      fill="#FFFFFF"
    />
    <path
      d="M52.23 9.15999C53.8552 9.08069 55.4599 9.55042 56.7858 10.4936C58.1117 11.4368 59.0818 12.7986 59.54 14.36C59.5493 14.3912 59.5512 14.4242 59.5455 14.4563C59.5399 14.4884 59.5269 14.5188 59.5075 14.545C59.488 14.5712 59.4628 14.5925 59.4337 14.6073C59.4047 14.622 59.3726 14.6298 59.34 14.63H55.54C55.5016 14.6294 55.4642 14.6177 55.4323 14.5964C55.4004 14.5751 55.3753 14.5451 55.36 14.51C55.0624 13.9211 54.6013 13.4305 54.032 13.097C53.4626 12.7636 52.8091 12.6014 52.15 12.63C49.81 12.63 48.21 14.36 48.21 17.12C48.21 19.88 49.81 21.61 52.15 21.61C52.81 21.6364 53.4637 21.4722 54.0329 21.1371C54.6021 20.8019 55.0628 20.31 55.36 19.72C55.3757 19.6859 55.4012 19.6573 55.4333 19.6377C55.4653 19.6181 55.5024 19.6085 55.54 19.61H59.32C59.3526 19.6102 59.3847 19.618 59.4137 19.6327C59.4428 19.6475 59.468 19.6688 59.4875 19.695C59.5069 19.7212 59.5199 19.7515 59.5255 19.7837C59.5312 19.8158 59.5293 19.8487 59.52 19.88C59.0604 21.443 58.0865 22.8049 56.7561 23.7452C55.4257 24.6854 53.8167 25.1487 52.19 25.06C51.1402 25.1017 50.0933 24.9241 49.1161 24.5386C48.1388 24.1531 47.2526 23.5682 46.514 22.8211C45.7754 22.074 45.2006 21.1812 44.8263 20.1996C44.4519 19.218 44.2863 18.1692 44.34 17.12C44.2861 16.0664 44.4528 15.0132 44.8293 14.0278C45.2059 13.0423 45.7839 12.1463 46.5266 11.3971C47.2692 10.6479 48.1601 10.0619 49.1422 9.67666C50.1243 9.29145 51.176 9.11547 52.23 9.15999Z"
      fill="#FFFFFF"
    />
    <path
      d="M61.1402 8.49023H64.5402C64.5673 8.4902 64.5942 8.49569 64.6191 8.50636C64.644 8.51703 64.6665 8.53266 64.6853 8.5523C64.704 8.57195 64.7185 8.59519 64.7279 8.62062C64.7374 8.64606 64.7415 8.67314 64.7402 8.70023V13.6202C64.7396 13.6622 64.7516 13.7034 64.7746 13.7385C64.7976 13.7736 64.8306 13.801 64.8694 13.8171C64.9081 13.8333 64.9508 13.8374 64.992 13.8291C65.0331 13.8207 65.0708 13.8002 65.1002 13.7702C65.5513 13.3213 66.0887 12.9685 66.6799 12.733C67.2711 12.4975 67.904 12.3843 68.5402 12.4002C71.3602 12.4002 73.2502 14.4002 73.2502 17.6902V24.6902C73.2502 24.7459 73.228 24.7993 73.1887 24.8387C73.1493 24.8781 73.0959 24.9002 73.0402 24.9002H69.7002C69.6445 24.9002 69.5911 24.8781 69.5517 24.8387C69.5123 24.7993 69.4902 24.7459 69.4902 24.6902V18.2002C69.5205 17.8694 69.4816 17.5358 69.3758 17.2208C69.27 16.9058 69.0997 16.6164 68.8757 16.3709C68.6517 16.1255 68.379 15.9294 68.0751 15.7953C67.7711 15.6611 67.4424 15.5918 67.1102 15.5918C66.7779 15.5918 66.4493 15.6611 66.1453 15.7953C65.8413 15.9294 65.5686 16.1255 65.3447 16.3709C65.1207 16.6164 64.9504 16.9058 64.8446 17.2208C64.7388 17.5358 64.6998 17.8694 64.7302 18.2002V24.7302C64.7315 24.7573 64.7274 24.7844 64.7179 24.8098C64.7085 24.8353 64.694 24.8585 64.6753 24.8782C64.6565 24.8978 64.634 24.9134 64.6091 24.9241C64.5842 24.9348 64.5573 24.9403 64.5302 24.9402H61.1402C61.1126 24.9402 61.0853 24.9348 61.0598 24.9242C61.0343 24.9137 61.0112 24.8982 60.9917 24.8787C60.9722 24.8592 60.9567 24.8361 60.9462 24.8106C60.9356 24.7851 60.9302 24.7578 60.9302 24.7302V8.70023C60.9302 8.64454 60.9523 8.59113 60.9917 8.55174C61.0311 8.51236 61.0845 8.49023 61.1402 8.49023Z"
      fill="#FFFFFF"
    />
    <path
      d="M80.1399 12.3596C80.7863 12.3369 81.4299 12.4538 82.027 12.7023C82.624 12.9508 83.1605 13.3251 83.5999 13.7996C83.6256 13.834 83.6616 13.8592 83.7027 13.8715C83.7438 13.8839 83.7878 13.8827 83.8281 13.8681C83.8685 13.8535 83.9031 13.8263 83.9268 13.7906C83.9505 13.7549 83.9621 13.7125 83.9599 13.6696V12.7496C83.9624 12.6947 83.9853 12.6427 84.0241 12.6038C84.063 12.565 84.115 12.5421 84.1699 12.5396H87.5399C87.5948 12.5421 87.6468 12.565 87.6857 12.6038C87.7246 12.6427 87.7475 12.6947 87.7499 12.7496V24.7496C87.7499 24.8053 87.7278 24.8587 87.6884 24.8981C87.649 24.9375 87.5956 24.9596 87.5399 24.9596H84.1699C84.1142 24.9596 84.0608 24.9375 84.0214 24.8981C83.982 24.8587 83.9599 24.8053 83.9599 24.7496V23.7996C83.9647 23.7559 83.9549 23.7118 83.932 23.6742C83.9092 23.6366 83.8746 23.6076 83.8336 23.5916C83.7926 23.5757 83.7475 23.5737 83.7052 23.586C83.663 23.5983 83.626 23.6242 83.5999 23.6596C83.1601 24.1397 82.6209 24.5181 82.0199 24.7685C81.4189 25.0189 80.7705 25.1353 80.1199 25.1096C77.1199 25.1096 74.6699 22.6196 74.6699 18.7096C74.6699 14.7996 77.0899 12.3496 80.1399 12.3496V12.3596ZM81.2499 15.6696C80.8659 15.6744 80.4872 15.7593 80.1379 15.9189C79.7886 16.0784 79.4765 16.3091 79.2214 16.5962C78.9663 16.8832 78.774 17.2204 78.6566 17.586C78.5393 17.9516 78.4995 18.3377 78.5399 18.7196C78.4932 19.1031 78.5285 19.4922 78.6434 19.8611C78.7582 20.23 78.9501 20.5703 79.2062 20.8595C79.4624 21.1487 79.777 21.3803 80.1293 21.5389C80.4816 21.6975 80.8636 21.7795 81.2499 21.7795C81.6363 21.7795 82.0182 21.6975 82.3705 21.5389C82.7228 21.3803 83.0375 21.1487 83.2936 20.8595C83.5498 20.5703 83.7416 20.23 83.8565 19.8611C83.9714 19.4922 84.0066 19.1031 83.9599 18.7196C83.9987 18.338 83.9579 17.9525 83.84 17.5876C83.722 17.2226 83.5296 16.8861 83.2748 16.5994C83.0201 16.3126 82.7086 16.082 82.36 15.9219C82.0114 15.7619 81.6334 15.6759 81.2499 15.6696Z"
      fill="#FFFFFF"
    />
    <path
      d="M98.3901 18.2102C98.3901 16.5202 97.4601 15.5802 96.0101 15.5802C95.672 15.5667 95.3351 15.6275 95.0231 15.7585C94.7112 15.8896 94.4318 16.0875 94.2048 16.3384C93.9777 16.5893 93.8086 16.8869 93.7093 17.2104C93.61 17.5338 93.5829 17.8752 93.6301 18.2102V24.7302C93.6314 24.7573 93.6273 24.7844 93.6178 24.8098C93.6084 24.8353 93.5939 24.8585 93.5752 24.8781C93.5564 24.8978 93.5339 24.9134 93.509 24.9241C93.4841 24.9348 93.4572 24.9402 93.4301 24.9402H90.0401C90.0125 24.9402 89.9852 24.9348 89.9597 24.9242C89.9342 24.9137 89.9111 24.8982 89.8916 24.8787C89.8721 24.8592 89.8566 24.8361 89.8461 24.8106C89.8355 24.7851 89.8301 24.7578 89.8301 24.7302V12.8002C89.8301 12.7726 89.8355 12.7453 89.8461 12.7198C89.8566 12.6944 89.8721 12.6712 89.8916 12.6517C89.9111 12.6322 89.9342 12.6167 89.9597 12.6062C89.9852 12.5956 90.0125 12.5902 90.0401 12.5902H93.4301C93.4572 12.5902 93.4841 12.5957 93.509 12.6063C93.5339 12.617 93.5564 12.6326 93.5752 12.6523C93.5939 12.6719 93.6084 12.6952 93.6178 12.7206C93.6273 12.746 93.6314 12.7731 93.6301 12.8002V13.6602C93.6295 13.7022 93.6415 13.7434 93.6645 13.7785C93.6875 13.8136 93.7205 13.841 93.7593 13.8571C93.798 13.8733 93.8407 13.8774 93.8819 13.8691C93.923 13.8607 93.9607 13.8402 93.9901 13.8102C94.4366 13.3671 94.9678 13.0183 95.5519 12.7847C96.136 12.551 96.7611 12.4373 97.3901 12.4502C100.26 12.4502 102.17 14.4502 102.17 17.7502V24.7502C102.171 24.7773 102.167 24.8044 102.158 24.8298C102.148 24.8553 102.134 24.8785 102.115 24.8981C102.096 24.9178 102.074 24.9334 102.049 24.9441C102.024 24.9548 101.997 24.9602 101.97 24.9602H98.6001C98.5729 24.9602 98.5461 24.9548 98.5212 24.9441C98.4962 24.9334 98.4737 24.9178 98.455 24.8981C98.4363 24.8785 98.4218 24.8553 98.4123 24.8298C98.4029 24.8044 98.3987 24.7773 98.4001 24.7502V18.2102H98.3901Z"
      fill="#FFFFFF"
    />
    <path
      d="M112.54 18.2102C112.54 16.5202 111.61 15.5802 110.16 15.5802C109.822 15.5666 109.485 15.6275 109.173 15.7585C108.861 15.8895 108.582 16.0875 108.355 16.3384C108.128 16.5892 107.958 16.8869 107.859 17.2104C107.76 17.5338 107.733 17.8751 107.78 18.2102V24.7302C107.78 24.7578 107.775 24.7851 107.764 24.8106C107.753 24.836 107.738 24.8592 107.718 24.8787C107.699 24.8982 107.676 24.9137 107.65 24.9242C107.625 24.9348 107.598 24.9402 107.57 24.9402H104.19C104.162 24.9402 104.135 24.9348 104.11 24.9242C104.084 24.9137 104.061 24.8982 104.041 24.8787C104.022 24.8592 104.007 24.836 103.996 24.8106C103.985 24.7851 103.98 24.7578 103.98 24.7302V12.8002C103.98 12.7726 103.985 12.7453 103.996 12.7198C104.007 12.6944 104.022 12.6712 104.041 12.6517C104.061 12.6322 104.084 12.6167 104.11 12.6062C104.135 12.5956 104.162 12.5902 104.19 12.5902H107.54C107.596 12.5902 107.649 12.6123 107.688 12.6517C107.728 12.6911 107.75 12.7445 107.75 12.8002V13.6602C107.749 13.7022 107.761 13.7434 107.784 13.7785C107.807 13.8136 107.84 13.8409 107.879 13.8571C107.918 13.8732 107.961 13.8774 108.002 13.869C108.043 13.8607 108.081 13.8402 108.11 13.8102C108.555 13.3534 109.089 12.9926 109.679 12.7501C110.269 12.5076 110.902 12.3885 111.54 12.4002C114.41 12.4002 116.32 14.4002 116.32 17.7002V24.7002C116.32 24.7559 116.298 24.8093 116.258 24.8487C116.219 24.8881 116.166 24.9102 116.11 24.9102H112.75C112.694 24.9102 112.641 24.8881 112.601 24.8487C112.562 24.8093 112.54 24.7559 112.54 24.7002V18.2102Z"
      fill="#FFFFFF"
    />
    <path
      d="M124.54 25.1203C123.696 25.16 122.854 25.0213 122.068 24.7133C121.282 24.4052 120.57 23.9347 119.978 23.3325C119.386 22.7303 118.928 22.01 118.634 21.2187C118.339 20.4274 118.215 19.5828 118.27 18.7403C118.27 14.8003 120.85 12.3603 124.54 12.3603C125.365 12.3058 126.193 12.4283 126.968 12.7196C127.742 13.0109 128.446 13.4643 129.031 14.0494C129.616 14.6345 130.069 15.3378 130.36 16.1123C130.652 16.8868 130.774 17.7146 130.72 18.5403C130.72 18.8303 130.72 19.1403 130.72 19.4603C130.715 19.5124 130.69 19.5608 130.652 19.596C130.613 19.6311 130.562 19.6505 130.51 19.6503H122.33C122.3 19.6484 122.27 19.6533 122.242 19.6645C122.215 19.6757 122.19 19.693 122.17 19.715C122.15 19.7371 122.135 19.7634 122.126 19.792C122.117 19.8206 122.115 19.8507 122.12 19.8803C122.151 20.4718 122.412 21.0277 122.847 21.4294C123.283 21.8311 123.858 22.0467 124.45 22.0303C124.841 22.0571 125.232 21.968 125.574 21.7742C125.915 21.5804 126.192 21.2903 126.37 20.9403C126.382 20.9035 126.405 20.8709 126.435 20.8462C126.465 20.8215 126.501 20.8056 126.54 20.8003H130.18C130.212 20.7988 130.244 20.8051 130.273 20.8186C130.302 20.8322 130.328 20.8526 130.348 20.8781C130.367 20.9036 130.38 20.9335 130.386 20.9652C130.392 20.997 130.389 21.0296 130.38 21.0603C129.984 22.2737 129.199 23.323 128.147 24.046C127.095 24.769 125.835 25.1254 124.56 25.0603L124.54 25.1203ZM122.33 17.5403H126.62C126.649 17.5392 126.678 17.5319 126.705 17.5189C126.731 17.5059 126.754 17.4875 126.773 17.4649C126.792 17.4422 126.806 17.4159 126.814 17.3875C126.822 17.3592 126.824 17.3294 126.82 17.3003C126.757 16.7438 126.479 16.2339 126.046 15.879C125.612 15.5242 125.058 15.3524 124.5 15.4003C123.946 15.3737 123.401 15.5484 122.965 15.892C122.53 16.2357 122.233 16.7251 122.13 17.2703C122.122 17.3014 122.122 17.3338 122.128 17.3651C122.135 17.3964 122.148 17.426 122.167 17.4517C122.186 17.4774 122.211 17.4986 122.239 17.5139C122.267 17.5292 122.298 17.5382 122.33 17.5403Z"
      fill="#FFFFFF"
    />
    <path
      d="M132.46 8.49023H135.84C135.868 8.49023 135.895 8.49567 135.92 8.50622C135.946 8.51677 135.969 8.53224 135.988 8.55174C136.008 8.57124 136.023 8.59439 136.034 8.61987C136.045 8.64535 136.05 8.67266 136.05 8.70023V24.7002C136.05 24.7278 136.045 24.7551 136.034 24.7806C136.023 24.8061 136.008 24.8292 135.988 24.8487C135.969 24.8682 135.946 24.8837 135.92 24.8942C135.895 24.9048 135.868 24.9102 135.84 24.9102H132.46C132.404 24.9102 132.351 24.8881 132.312 24.8487C132.272 24.8093 132.25 24.7559 132.25 24.7002V8.70023C132.25 8.64454 132.272 8.59113 132.312 8.55174C132.351 8.51236 132.404 8.49023 132.46 8.49023Z"
      fill="#FFFFFF"
    />
  </g>
  <defs>
    <clipPath id="clip0_841_41685">
      <rect width="157.63" height="34.47" fill="white" />
    </clipPath>
  </defs>
</svg>
