<svg width="692" height="256" viewBox="0 0 692 256" fill="none" xmlns="http://www.w3.org/2000/svg">
  <g clip-path="url(#clip0_1642_52017)">
    <path
      d="M161.625 0.943359H92.4911C41.4102 0.943359 0.000976562 42.3526 0.000976562 93.4335V162.567C0.000976562 213.648 41.4102 255.057 92.4911 255.057H161.625C212.706 255.057 254.115 213.648 254.115 162.567V93.4335C254.115 42.3526 212.706 0.943359 161.625 0.943359Z"
      fill="#4A26FF"
    />
    <path
      d="M197.419 157.493C201.23 148.421 203.334 138.485 203.334 128.034C203.334 86.0676 169.106 51.7695 127.14 51.7695C85.0094 51.7695 50.8516 85.9039 50.875 128.034C50.875 170.001 85.173 204.252 127.14 204.252C137.59 204.252 147.527 202.148 156.598 198.337C162.233 195.976 168.498 195.555 174.437 197.028L191.013 201.166C196.601 202.569 201.651 197.495 200.248 191.931L196.11 175.355C194.637 169.416 195.058 163.15 197.419 157.516V157.493Z"
      fill="white"
    />
    <path
      d="M127.068 170.375C146.403 170.375 163.236 159.573 171.817 143.652C172.775 141.875 172.144 139.654 170.391 138.602L156.737 130.419C154.82 129.273 152.365 130.045 151.336 132.032C146.801 140.846 137.636 146.878 127.045 146.878C116.454 146.878 107.289 140.846 102.753 132.032C101.724 130.045 99.293 129.273 97.3524 130.419L83.6987 138.602C81.9686 139.654 81.314 141.875 82.2725 143.652C90.8529 159.55 107.686 170.375 127.021 170.375H127.068Z"
      fill="black"
    />
    <path
      d="M372.111 152.14C366.336 148.867 362.969 145.407 359.135 140.193C354.973 134.559 351.934 128.34 350.017 121.56C348.1 114.78 347.118 107.602 347.048 100.004V97.3618H368.58C369.352 97.3618 369.983 96.7306 369.983 95.959V82.656C369.983 81.8845 369.352 81.2532 368.58 81.2532H346.977V63.4145C346.977 62.643 346.346 62.0117 345.575 62.0117H329.863C329.092 62.0117 328.461 62.643 328.461 63.4145V81.2532H306.414C305.642 81.2532 305.011 81.8845 305.011 82.656V95.959C305.011 96.7306 305.642 97.3618 306.414 97.3618H328.461V100.004C328.414 107.789 327.432 115.271 325.491 122.448C323.574 129.626 320.512 136.219 316.303 142.251C312.399 147.862 307.512 152.444 301.667 156.022C300.943 156.466 300.756 157.401 301.27 158.056L310.856 170.61C311.3 171.195 312.118 171.359 312.726 170.985C319.506 166.94 325.141 161.375 329.63 154.362C333.09 148.961 335.849 143.046 337.953 136.64C339.987 142.274 342.582 147.535 345.925 152.257C350.321 158.5 354.529 162.825 361.449 166.916C362.057 167.267 362.829 167.08 363.273 166.519L372.625 154.221C373.139 153.543 372.929 152.561 372.157 152.14H372.111Z"
      fill="black"
    />
    <path
      d="M426.165 57.0078H409.893C409.121 57.0078 408.49 57.6391 408.49 58.4106V111.857H396.403V60.5849C396.403 59.8134 395.772 59.1821 395 59.1821H379.055C378.284 59.1821 377.652 59.8134 377.652 60.5849V191.02C377.652 191.792 378.284 192.423 379.055 192.423H395C395.772 192.423 396.403 191.792 396.403 191.02V127.989H408.49V197.567C408.49 198.338 409.121 198.969 409.893 198.969H426.165C426.937 198.969 427.591 198.338 427.591 197.567V58.4106C427.591 57.6391 426.96 57.0078 426.165 57.0078Z"
      fill="black"
    />
    <path
      d="M522.933 117.7C523.705 117.56 524.219 116.835 524.102 116.063L521.858 102.714C521.717 101.942 520.993 101.428 520.221 101.568C510.495 103.251 501.564 104.28 491.885 104.958C484.146 105.519 476.945 105.893 468.482 106.08V63.3188C468.482 62.5473 467.85 61.916 467.079 61.916H450.105C449.334 61.916 448.703 62.5473 448.703 63.3188V119.383V121.324C448.703 122.095 448.375 122.75 449.17 122.75H459.457C470.843 122.75 481.832 122.353 492.423 121.581C502.569 120.833 512.365 119.547 522.956 117.7H522.933Z"
      fill="black"
    />
    <path
      d="M463.034 158.218V195.719C463.034 196.444 463.619 197.052 464.367 197.052H555.922C556.646 197.052 557.254 196.468 557.254 195.719V182.58C557.254 181.855 556.67 181.247 555.922 181.247H482.439V172.153H552.742C553.467 172.153 554.075 171.568 554.075 170.82V133.342C554.075 132.618 553.49 132.01 552.742 132.01H464.343C463.619 132.01 463.011 132.594 463.011 133.342V146.482C463.011 147.207 463.595 147.814 464.343 147.814H534.74V156.909H464.343C463.619 156.909 463.011 157.494 463.011 158.242L463.034 158.218Z"
      fill="black"
    />
    <path
      d="M503.086 91.1656H534.298V122.261C534.298 123.032 534.93 123.663 535.701 123.663H552.675C553.446 123.663 554.078 123.032 554.078 122.261V58.4106C554.078 57.6391 553.446 57.0078 552.675 57.0078H535.701C534.93 57.0078 534.298 57.6391 534.298 58.4106V75.3375H503.086C502.315 75.3375 501.684 75.9688 501.684 76.7403V89.7394C501.684 90.5109 502.315 91.1422 503.086 91.1422V91.1656Z"
      fill="black"
    />
    <path
      d="M689.798 132.359H641.239V121.909H676.425C677.197 121.909 677.828 121.278 677.828 120.483V108.068C677.828 107.273 677.197 106.642 676.425 106.642H602.803V98.4355H672.17C672.942 98.4355 673.573 97.8043 673.573 97.0561V85.3663C673.573 84.5948 672.942 83.9869 672.17 83.9869H602.803V75.2195H675.397C676.168 75.2195 676.799 74.5882 676.799 73.7933V61.1449C676.799 60.35 676.168 59.7188 675.397 59.7188H585.455C584.683 59.7188 584.052 60.35 584.052 61.1449V120.529C584.052 121.324 584.683 121.956 585.455 121.956H621.296V132.406H574.116C573.344 132.406 572.713 133.038 572.713 133.809V146.715C572.713 147.486 573.344 148.117 574.116 148.117H689.798C690.57 148.117 691.201 147.486 691.201 146.715V133.809C691.201 133.038 690.57 132.406 689.798 132.406V132.359Z"
      fill="black"
    />
    <path
      d="M585.404 156.674C584.632 156.674 584.001 157.305 584.001 158.077V170.912C584.001 171.684 584.632 172.315 585.427 172.315H658.91C658.793 178.814 658.138 186.904 656.992 196.396C656.899 197.121 657.437 197.799 658.161 197.892L674.013 199.576C674.738 199.646 675.392 199.108 675.486 198.383C677.309 181.947 677.426 170.795 677.637 158.03C677.637 157.282 677.052 156.674 676.304 156.674H585.427H585.404Z"
      fill="black"
    />
  </g>
  <defs>
    <clipPath id="clip0_1642_52017">
      <rect width="691.198" height="254.114" fill="white" transform="translate(0 0.943359)" />
    </clipPath>
  </defs>
</svg>
